Coordinates
version=1
nRows=19
nColumns=36
inDegrees=yes

Units are S.I. units (second, meters, Newtons, ...)
If the header above contains a line with 'inDegrees', this indicates whether rotational values are in degrees (yes) or radians (no).

endheader
time	pelvis_tilt	pelvis_list	pelvis_rotation	pelvis_tx	pelvis_ty	pelvis_tz	hip_flexion_r	hip_adduction_r	hip_rotation_r	knee_angle_r	knee_angle_r_beta	ankle_angle_r	subtalar_angle_r	mtp_angle_r	hip_flexion_l	hip_adduction_l	hip_rotation_l	knee_angle_l	knee_angle_l_beta	ankle_angle_l	subtalar_angle_l	mtp_angle_l	lumbar_extension	lumbar_bending	lumbar_rotation	arm_flex_r	arm_add_r	arm_rot_r	elbow_flex_r	pro_sup_r	arm_flex_l	arm_add_l	arm_rot_l	elbow_flex_l	pro_sup_l
     29.98333330	      7.00198250	     -8.69532708	      2.30906818	      0.53622706	      1.02752728	      0.73350918	      4.27303814	     10.80195675	      2.51971442	     14.67683948	      0.25615917	      8.42506536	     -8.06825679	     -7.49999987	      1.30105426	    -11.34877737	      0.55795472	     61.92814770	      1.08085008	     -1.58549188	    -11.72079401	     -7.49999987	    -15.30036882	     11.27446415	      4.93043011	      1.24422739	    -19.04439776	      1.50375961	     24.80002451	     96.62636596	      9.66775310	    -10.14004964	     21.42087264	     20.78138820	     92.03866029
     30.00000000	      7.30234306	     -8.15884906	      2.11372370	      0.53354220	      1.03264138	      0.73733649	      2.67568651	     10.34547262	      2.30654055	     14.01270661	      0.24456787	      8.89685593	     -7.09393118	     -7.49999987	      3.87000174	    -10.87990206	      0.77031710	     63.90674321	      1.11538308	      0.47498870	    -13.21763053	     -7.49999987	    -16.21776063	     10.61845392	      4.99726251	      2.92422134	    -19.08616967	      2.24627886	     26.18656447	     95.40699373	      9.15597371	    -10.20759054	     21.31437932	     20.64180501	     91.03552366
     30.01666670	      7.68506293	     -7.62113383	      1.82561498	      0.53095346	      1.03673067	      0.74118231	      0.97801558	      9.90642994	      2.28600576	     13.17067080	      0.22987157	      9.09406625	     -6.35412143	     -7.49999987	      6.04725703	    -10.46132830	      0.86031378	     65.33023509	      1.14022770	      1.19455204	    -14.19024429	     -7.49999987	    -17.16559450	      9.91143545	      4.94454463	      4.70780090	    -19.08009709	      3.26043557	     27.38072875	     94.53062555	      8.65811183	    -10.31370565	     21.23606191	     20.39463135	     90.56439857
     30.03333330	      8.12680523	     -7.11205503	      1.39420750	      0.52852806	      1.03966696	      0.74519499	     -0.83528567	      9.49295626	      2.52499278	     12.13481852	      0.21179254	      9.15556049	     -5.73614976	     -7.49999987	      7.84360038	    -10.12424301	      0.79393715	     66.19087675	      1.15524873	      0.95616051	    -14.63467926	     -7.49999987	    -18.19328398	      9.21194321	      4.56421368	      6.74430477	    -18.95969003	      4.44740606	     28.39567461	     95.02530623	      7.60904896	    -10.43617221	     18.63845856	     21.03729559	     93.72352581
     30.05000000	      8.53484407	     -6.64251099	      0.95937408	      0.52612445	      1.04132015	      0.74902015	     -2.62199485	      9.06988927	      2.57591923	     11.08087252	      0.19339771	      9.40396539	     -4.71651106	     -7.49999987	      9.38740375	     -9.81708240	      0.67223110	     66.44181100	      1.15962836	      0.61572758	    -14.63752494	     -7.49999987	    -18.98823534	      8.50711152	      4.59476988	      8.23506996	    -18.79505721	      5.09611959	     29.33939172	     93.57130416	      7.35925023	    -10.42228741	     18.59703715	     20.44837958	     92.57773084
     30.06666670	      8.82668630	     -6.18875424	      0.43520805	      0.52426553	      1.04233674	      0.75254097	     -4.29699482	      8.65069634	      2.93460839	     10.12066167	      0.17663887	      9.55686435	     -4.12183312	     -7.49999987	     10.72285317	     -9.46704576	      0.41716967	     65.82049710	      1.14878439	      0.87582237	    -14.39359737	     -7.49999987	    -19.60541815	      7.80523421	      4.59484996	      9.75200440	    -18.72322324	      6.15336531	     30.15661417	     93.15723302	      7.01042624	    -10.47687899	     18.41079311	     20.14666341	     92.72009785
     30.08333330	      9.03900693	     -5.73969282	     -0.08844428	      0.52401559	      1.04406641	      0.75537005	     -5.91060916	      8.18899305	      3.28296494	      9.30805508	      0.16245621	      9.80276509	     -3.33069318	     -7.49999987	     11.87680537	     -9.02603962	      0.08719875	     64.07812293	      1.11837422	      2.31238243	    -13.81394835	     -7.49999987	    -20.02548238	      7.13636143	      4.56481082	     11.05909539	    -18.42604487	      6.21696449	     31.12598166	     93.19505094	      6.65527877	    -10.43393871	     18.30079620	     19.60163557	     92.91906160
     30.10000000	      9.03024089	     -5.32320017	     -0.59626913	      0.52437120	      1.04633571	      0.75696297	     -7.25532596	      7.73466025	      3.63439027	      8.70398028	      0.15191311	      9.91731337	     -2.69617576	     -7.49999987	     13.06766188	     -8.47794881	     -0.16634881	     61.20850258	      1.06828990	      4.20913718	    -13.23805541	     -7.49999987	    -20.25680551	      6.47709386	      4.60947667	     12.17787274	    -18.22464614	      6.30688973	     32.04792606	     93.11815236	      6.21160282	    -10.37707474	     18.14346057	     19.18944734	     92.97181960
     30.11666670	      9.25116878	     -4.98537448	     -1.03984199	      0.52292987	      1.04832770	      0.75690009	     -8.76789332	      7.32994916	      3.85869686	      8.26167461	      0.14419342	     10.03728485	     -2.10543234	     -7.49999987	     13.79654993	     -7.96488358	     -0.40686239	     57.38611800	      1.00157670	      6.04979024	    -12.49435145	     -7.49999987	    -20.86641773	      5.93603309	      4.53922848	     13.46912584	    -18.13229345	      6.58248250	     33.11163504	     92.96605827	      5.80059355	    -10.29064025	     17.68589365	     18.81982025	     93.07447301
     30.13333330	      9.15523015	     -4.64272433	     -1.52338889	      0.52056992	      1.04907989	      0.75607831	     -9.83142153	      6.90571404	      4.08438970	      7.96157649	      0.13895572	     10.11249935	     -1.81324076	     -7.49999987	     14.60191958	     -7.45740197	     -0.68348909	     53.03034000	      0.92555404	      6.98433354	    -12.05166641	     -7.49999987	    -21.11668470	      5.37732838	      4.39590690	     14.65002188	    -18.13611037	      7.55359836	     34.11202015	     90.94091687	      5.16085154	    -10.16674294	     16.82529073	     18.67111585	     91.78960145
     30.15000000	      8.67713521	     -4.38133846	     -1.84429619	      0.51921287	      1.04884179	      0.75539434	    -10.45471557	      6.60511319	      4.16573340	      7.61056233	      0.13282937	     10.08967568	     -1.91426312	     -7.49999987	     15.62158980	     -7.01364228	     -0.73330085	     48.33739356	      0.84364667	      7.35512662	    -11.69748414	     -7.49999987	    -20.79290244	      4.98102530	      4.44594081	     15.38155935	    -18.14311003	      7.60943809	     34.79494275	     90.85642276	      4.66961536	    -10.00549369	     16.77656967	     18.51816014	     91.85922289
     30.16666670	      8.86651867	     -4.09232884	     -2.23843415	      0.51817129	      1.04956843	      0.75518420	    -11.79288009	      6.19840797	      4.37169573	      7.14422494	      0.12469025	     10.21668617	     -1.95430929	     -7.49999987	     15.55550155	     -6.56722336	     -0.93925854	     43.09474234	      0.75214514	      7.19987161	    -11.43151052	     -7.49999987	    -21.50751033	      4.52795199	      3.63232104	     17.24581794	    -18.04123786	      9.89931568	     35.05823547	     88.67369930	      3.42888682	     -9.85555594	     12.70614546	     19.51916887	     95.23638384
     30.18333330	      8.57972408	     -3.93528470	     -2.52652900	      0.51680730	      1.05015230	      0.75459194	    -12.57946143	      5.94984871	      4.60606311	      6.65662541	      0.11618003	     10.27681376	     -2.30072561	     -7.49999987	     15.90249030	     -6.31469433	     -1.02669818	     37.68280184	      0.65768896	      6.83428129	    -10.86939486	     -7.49999987	    -21.53407489	      4.23317179	      3.74080507	     17.64231985	    -18.18368479	      9.80928113	     36.04482342	     88.19147484	      3.15271818	     -9.62510341	     12.53434871	     19.27929802	     95.01411323
     30.20000000	      8.23692796	     -3.78995429	     -2.62299875	      0.51485385	      1.05016450	      0.75337053	    -13.18902052	      5.68660580	      4.33227730	      6.25201639	      0.10911827	     10.69175608	     -2.08125737	     -7.49999987	     16.18749822	     -6.06383204	     -0.93749622	     32.01701061	      0.55880225	      6.00879289	    -10.39730499	     -7.49999987	    -21.50214411	      4.01226413	      3.77162870	     17.84365432	    -18.38082119	      9.67598096	     36.97832392	     87.64162167	      2.92939896	     -9.45183971	     12.35899728	     19.49077421	     94.61766123
     30.21666670	      7.81647685	     -3.72618049	     -2.53062988	      0.51367170	      1.04838454	      0.75227167	    -13.63113890	      5.52527599	      3.98313200	      5.87408543	      0.10252213	     11.14211757	     -1.93018208	     -7.49999987	     16.50559007	     -5.92220697	     -0.71291810	     26.23897173	      0.45795645	      5.16604014	     -9.57990864	     -7.49999987	    -21.31133560	      3.98038329	      3.57227928	     18.08122705	    -18.49580595	      9.58148105	     37.79039967	     87.65230794	      2.81239751	     -9.27276916	     12.15545922	     19.32701410	     94.83520005
     30.23333330	      7.32102896	     -3.73420699	     -2.50837740	      0.51388816	      1.04427236	      0.75177278	    -13.90357063	      5.40907997	      3.96997599	      5.57900892	      0.09737207	     11.74192210	     -2.03030614	     -7.49999987	     16.83808414	     -5.92518164	     -0.61206048	     20.48675496	      0.35756133	      4.68542103	     -8.20841039	     -7.49999987	    -21.04906684	      3.98241468	      3.56207026	     18.23314622	    -18.61194324	      9.47724245	     38.53133668	     87.82839663	      2.85384368	     -8.93977883	     11.91023349	     19.00003339	     95.28156974
     30.25000000	      6.78445597	     -3.88595834	     -2.43055417	      0.51496057	      1.03931008	      0.75152182	    -14.08481445	      5.40620949	      3.58537163	      5.39423450	      0.09414715	     12.78888387	     -1.09656203	     -7.49999987	     17.19684446	     -6.09782796	     -0.55979462	     15.01554799	      0.26207075	      4.87860021	     -5.85452796	     -7.49999987	    -20.63274606	      4.11768966	      3.96836150	     17.63553952	    -18.97719728	      8.67994325	     40.05464661	     87.31948656	      3.32005599	     -8.56984989	     11.91792534	     18.19872977	     95.93720552
     30.26666670	      6.24871281	     -4.05867085	     -2.46741520	      0.51615400	      1.03434030	      0.75149683	    -14.17375055	      5.38771376	      3.33025927	      5.43423021	      0.09484521	     14.01969978	     -0.19251398	     -7.49999987	     17.52621952	     -6.27603879	     -0.41381928	     10.19988752	      0.17802162	      5.16071982	     -3.55579261	     -7.49999987	    -20.18882387	      4.23900645	      4.09249775	     17.51003355	    -19.15075310	      8.71875498	     40.81433913	     86.30211706	      3.44438482	     -8.32517642	     12.01065869	     17.80751063	     95.08064439
     30.28333330	      5.69018258	     -4.23789880	     -2.54643392	      0.51724423	      1.02951585	      0.75146494	    -14.13249589	      5.36841818	      3.06430421	      5.73656618	      0.10012197	     15.22288649	      0.56956418	     -7.49999987	     17.99552333	     -6.42896262	     -0.20907438	      6.65118215	      0.11608503	      5.50986662	     -1.40678249	     -7.49999987	    -19.67287124	      4.32866345	      4.11203610	     17.31727045	    -19.20262938	      8.72150444	     41.57271653	     85.25826311	      3.48345671	     -8.16502938	     11.87669255	     17.47081921	     94.22816460
